<svg width="70" height="71" viewBox="0 0 70 71" fill="none" xmlns="http://www.w3.org/2000/svg">
<path d="M45.5836 35.856C45.5836 38.7602 44.4481 41.5455 42.427 43.5991C40.4059 45.6527 37.6646 46.8064 34.8063 46.8064C31.948 46.8064 29.2068 45.6527 27.1857 43.5991C25.1645 41.5455 24.0291 38.7602 24.0291 35.856C24.0291 35.2318 24.0937 34.6222 24.2051 34.0309H20.4367V48.6206C20.4367 49.6353 21.2449 50.4566 22.2436 50.4566H47.3726C47.8512 50.4556 48.3099 50.2618 48.648 49.9175C48.9861 49.5733 49.176 49.1069 49.176 48.6206V34.0309H45.4075C45.5189 34.6222 45.5836 35.2318 45.5836 35.856ZM34.8063 43.1563C35.7501 43.156 36.6846 42.9669 37.5564 42.5997C38.4282 42.2326 39.2203 41.6945 39.8875 41.0162C40.5547 40.338 41.0839 39.5329 41.4448 38.6469C41.8057 37.7608 41.9914 36.8112 41.9912 35.8523C41.9909 34.8934 41.8048 33.9439 41.4434 33.058C41.082 32.1722 40.5525 31.3674 39.885 30.6895C39.2175 30.0116 38.4251 29.4739 37.5531 29.1071C36.6811 28.7404 35.7465 28.5518 34.8027 28.552C32.8967 28.5525 31.069 29.3223 29.7215 30.692C28.3741 32.0618 27.6174 33.9193 27.6179 35.856C27.6184 37.7926 28.376 39.6497 29.7241 41.0188C31.0722 42.3879 32.9003 43.1568 34.8063 43.1563ZM43.4281 28.1906H47.7354C48.0216 28.1906 48.2961 28.0754 48.4988 27.8701C48.7015 27.6649 48.8158 27.3863 48.8167 27.0956V22.719C48.8167 22.4277 48.7028 22.1482 48.5 21.9422C48.2972 21.7361 48.0222 21.6203 47.7354 21.6203H43.4281C43.1413 21.6203 42.8663 21.7361 42.6635 21.9422C42.4607 22.1482 42.3468 22.4277 42.3468 22.719V27.0956C42.3504 27.6979 42.8354 28.1906 43.4281 28.1906ZM34.8063 0.814453C25.6597 0.814453 16.8878 4.50631 10.4202 11.0779C3.95258 17.6494 0.319122 26.5624 0.319122 35.856C0.319122 45.1495 3.95258 54.0625 10.4202 60.6341C16.8878 67.2056 25.6597 70.8975 34.8063 70.8975C39.3352 70.8975 43.8198 69.9911 48.004 68.2301C52.1882 66.4691 55.99 63.888 59.1925 60.6341C62.3949 57.3801 64.9352 53.5172 66.6683 49.2658C68.4015 45.0143 69.2935 40.4577 69.2935 35.856C69.2935 31.2542 68.4015 26.6976 66.6683 22.4462C64.9352 18.1947 62.3949 14.3318 59.1925 11.0779C55.99 7.82397 52.1882 5.24283 48.004 3.48183C43.8198 1.72083 39.3352 0.814453 34.8063 0.814453ZM52.7684 50.0514C52.7684 52.2817 50.9722 54.1068 48.7772 54.1068H20.8354C18.6404 54.1068 16.8442 52.2817 16.8442 50.0514V21.6605C16.8442 19.4303 18.6404 17.6052 20.8354 17.6052H48.7772C50.9722 17.6052 52.7684 19.4303 52.7684 21.6605V50.0514Z" fill="black"/>
</svg>
