<svg width="130" height="130" viewBox="0 0 130 130" fill="none" xmlns="http://www.w3.org/2000/svg">
<path d="M49.922 28.095C45.3343 26.8212 40.4928 26.3107 35.3965 26.8212C16.8786 28.6895 2.18414 43.8953 0.910296 62.4123C-0.619244 84.9225 17.1343 103.695 39.3897 103.695C43.0423 103.695 46.6091 103.186 49.9229 102.25C50.6873 101.997 50.7713 100.977 50.0079 100.638C36.2466 94.7763 26.5645 81.1009 26.5645 65.1307C26.5645 49.1615 36.2476 35.4852 50.0079 29.6246C50.7703 29.3689 50.6864 28.2639 49.922 28.095ZM103.605 65.1298C103.605 94.7754 83.5581 119.748 56.2073 127.138C55.3571 127.392 55.443 128.667 56.2922 128.838C60.1987 129.348 64.1919 129.517 68.2691 129.348C101.058 127.734 127.558 101.146 129.174 68.3587C131.041 31.4089 101.651 0.914062 65.0411 0.914062C62.0679 0.914062 59.1787 1.08299 56.3762 1.50852C55.4421 1.59345 55.3571 2.95314 56.2913 3.20791C83.5581 10.5953 103.605 35.4843 103.605 65.1298Z" fill="#78B1BB"/>
</svg>
