<svg width="69" height="71" viewBox="0 0 69 71" fill="none" xmlns="http://www.w3.org/2000/svg">
<path d="M34.4872 0C15.4402 0 0 15.6884 0 35.0415C0 54.3946 15.4402 70.083 34.4872 70.083C53.5342 70.083 68.9744 54.3946 68.9744 35.0415C68.9744 15.6884 53.5342 0 34.4872 0ZM48.5156 28.7048C48.53 29.0041 48.5335 29.3035 48.5335 29.5955C48.5335 38.7209 41.7044 49.237 29.2099 49.237C25.518 49.2432 21.9028 48.1658 18.7991 46.1343C19.3272 46.2 19.8697 46.2256 20.4193 46.2256C23.6022 46.2256 26.53 45.1269 28.8543 43.2726C27.4379 43.2444 26.0654 42.7678 24.9282 41.9093C23.791 41.0509 22.9457 39.8534 22.5101 38.4836C23.5273 38.6801 24.5752 38.639 25.5744 38.3632C24.037 38.0473 22.6545 37.2009 21.6612 35.9674C20.668 34.734 20.1251 33.1895 20.1247 31.5958V31.5118C21.0408 32.0265 22.0898 32.3404 23.2034 32.3769C21.7621 31.402 20.7418 29.9045 20.3512 28.1906C19.9606 26.4768 20.2291 24.676 21.1019 23.1566C22.8081 25.2883 24.9359 27.0321 27.3475 28.2753C29.7591 29.5184 32.4008 30.233 35.1015 30.373C34.7581 28.8921 34.9059 27.3375 35.5218 25.9508C36.1378 24.5641 37.1873 23.423 38.5074 22.7049C39.8274 21.9869 41.3439 21.732 42.8212 21.98C44.2985 22.2281 45.6537 22.9651 46.6763 24.0764C48.1965 23.7708 49.6543 23.2042 50.9872 22.401C50.4805 24.0003 49.4197 25.3583 48.0019 26.2227C49.3485 26.0579 50.6634 25.6901 51.9032 25.1313C50.9925 26.518 49.8453 27.7282 48.5156 28.7048Z" fill="black"/>
</svg>
