<svg width="69" height="69" viewBox="0 0 69 69" fill="none" xmlns="http://www.w3.org/2000/svg">
<path d="M40.2843 33.6312L32.4034 29.8948C31.7156 29.5704 31.1507 29.934 31.1507 30.7077V37.7455C31.1507 38.5192 31.7156 38.8828 32.4034 38.5584L40.2808 34.822C40.972 34.494 40.972 33.9592 40.2843 33.6312ZM34.6596 0C16.0555 0 0.974396 15.3235 0.974396 34.2266C0.974396 53.1297 16.0555 68.4532 34.6596 68.4532C53.2636 68.4532 68.3447 53.1297 68.3447 34.2266C68.3447 15.3235 53.2636 0 34.6596 0ZM34.6596 48.1311C17.417 48.1311 17.1152 46.5517 17.1152 34.2266C17.1152 21.9015 17.417 20.322 34.6596 20.322C51.9022 20.322 52.2039 21.9015 52.2039 34.2266C52.2039 46.5517 51.9022 48.1311 34.6596 48.1311Z" fill="black"/>
</svg>
